<?xml version="1.0" ?><svg height="32px" version="1.1" viewBox="0 0 32 32" width="32px" xmlns="http://www.w3.org/2000/svg" xmlns:xlink="http://www.w3.org/1999/xlink"><title/><desc/><defs/><g fill="none" fill-rule="evenodd" id="Page-1" stroke="none" stroke-width="1"><g id="letter-Y"><g id="Page-1" transform="translate(5.000000, 2.000000)"><path d="M8.7005,25.157 L8.7005,16.569 L2.0885,6.318 C1.5095,5.394 1.1005,4.674 0.8605,4.157 C0.6205,3.64 0.4995,3.19 0.4995,2.809 C0.4995,2.181 0.7435,1.639 1.2295,1.183 C1.7155,0.728 2.3165,0.5 3.0305,0.5 C3.7815,0.5 4.3505,0.712 4.7385,1.137 C5.1265,1.562 5.7085,2.409 6.4845,3.677 L11.5445,11.896 L16.6605,3.677 C16.9685,3.172 17.2275,2.747 17.4365,2.402 C17.6455,2.058 17.8765,1.734 18.1295,1.433 C18.3815,1.131 18.6615,0.9 18.9695,0.74 C19.2775,0.58 19.6525,0.5 20.0965,0.5 C20.7855,0.5 21.3615,0.725 21.8235,1.174 C22.2845,1.624 22.5155,2.144 22.5155,2.735 C22.5155,3.215 22.3985,3.695 22.1645,4.175 C21.9305,4.656 21.5305,5.321 20.9645,6.17 L14.1855,16.569 L14.1855,25.157 C14.1855,26.277 13.9275,27.115 13.4105,27.669 C12.8935,28.223 12.2345,28.5 11.4345,28.5 C10.6215,28.5 9.9625,28.226 9.4575,27.678 C8.9525,27.13 8.7005,26.29 8.7005,25.157" fill="#2FBBF4" id="Fill-1"/><path d="M8.7005,25.157 L8.7005,16.569 L2.0885,6.318 C1.5095,5.394 1.1005,4.674 0.8605,4.157 C0.6205,3.64 0.4995,3.19 0.4995,2.809 C0.4995,2.181 0.7435,1.639 1.2295,1.183 C1.7155,0.728 2.3165,0.5 3.0305,0.5 C3.7815,0.5 4.3505,0.712 4.7385,1.137 C5.1265,1.562 5.7085,2.409 6.4845,3.677 L11.5445,11.896 L16.6605,3.677 C16.9685,3.172 17.2275,2.747 17.4365,2.402 C17.6455,2.058 17.8765,1.734 18.1295,1.433 C18.3815,1.131 18.6615,0.9 18.9695,0.74 C19.2775,0.58 19.6525,0.5 20.0965,0.5 C20.7855,0.5 21.3615,0.725 21.8235,1.174 C22.2845,1.624 22.5155,2.144 22.5155,2.735 C22.5155,3.215 22.3985,3.695 22.1645,4.175 C21.9305,4.656 21.5305,5.321 20.9645,6.17 L14.1855,16.569 L14.1855,25.157 C14.1855,26.277 13.9275,27.115 13.4105,27.669 C12.8935,28.223 12.2345,28.5 11.4345,28.5 C10.6215,28.5 9.9625,28.226 9.4575,27.678 C8.9525,27.13 8.7005,26.29 8.7005,25.157 L8.7005,25.157 Z" id="Stroke-3" stroke="#092933" stroke-linejoin="round"/><path d="M11.434,27 C10.762,27 10.236,26.784 9.826,26.339 C9.411,25.889 9.201,25.155 9.201,24.157 L9.201,25.157 C9.201,26.155 9.411,26.889 9.826,27.339 C10.236,27.784 10.762,28 11.434,28 C12.095,28 12.622,27.78 13.045,27.328 C13.47,26.872 13.686,26.143 13.686,25.157 L13.686,24.157 C13.686,25.143 13.47,25.872 13.045,26.328 C12.622,26.78 12.095,27 11.434,27" fill="#332E09" id="Fill-5" opacity="0.203766325"/><path d="M19.1963,3.0104 L15.2583,9.4894" id="Stroke-7" stroke="#FFFFFF" stroke-dasharray="1,2,6,2,3" stroke-linecap="round" stroke-linejoin="round"/></g></g></g></svg>